<?xml version="1.0" encoding="utf-8"?>
<!-- Generator: Adobe Illustrator 26.0.3, SVG Export Plug-In . SVG Version: 6.00 Build 0)  -->
<svg version="1.1" id="Calque_1" xmlns="http://www.w3.org/2000/svg" xmlns:xlink="http://www.w3.org/1999/xlink" x="0px" y="0px"
	 viewBox="0 0 200 200" style="enable-background:new 0 0 200 200;" xml:space="preserve">
<style type="text/css">
	.st0{fill-rule:evenodd;clip-rule:evenodd;fill:#FFFFFF;fill-opacity:0.75;}
	.st1{fill-rule:evenodd;clip-rule:evenodd;fill:#FFFFFF;}
</style>
<path id="_3" class="st0" d="M173.5,152.8c-6.3,7.4-13.2,14.4-20.7,20.7c0,0-27.3,22.5-52.8,22.5s-52.8-22.5-52.8-22.5
	c-7.4-6.3-14.4-13.3-20.7-20.7c0,0-22.5-27.3-22.5-52.8s22.5-52.8,22.5-52.8c6.3-7.4,13.2-14.4,20.7-20.7C47.2,26.5,74.5,4,100,4
	s52.8,22.5,52.8,22.5c7.4,6.3,14.4,13.2,20.7,20.7c0,0,22.5,27.3,22.5,52.8S173.5,152.8,173.5,152.8L173.5,152.8z"/>
<path id="_2" class="st1" d="M100,12c-47.9-0.5-88,39-88,88c0,48.6,39.4,88,88,88s88-39.4,88-88C188,51.4,148.6,12.5,100,12z
	 M154.8,154.8C141.4,171.5,121.8,182,100,182s-41.3-10.5-54.8-27.2C28.5,141.3,18,121.8,18,100s10.5-41.3,27.2-54.8
	C58.7,28.5,78.2,18,100,18s41.3,10.5,54.8,27.2C171.5,58.7,182,78.2,182,100S171.5,141.3,154.8,154.8L154.8,154.8z"/>
<path id="_1" class="st1" d="M100,28c18.6,0,37,14.9,37.2,15.1c7.1,6.1,13.8,12.8,19.8,20c0.2,0.2,15,18.2,15,37s-14.8,37.8-14.9,38
	c-6.1,7.2-12.7,13.9-19.8,20C137,158.1,118.7,172,100,172c-18.6,0-37-13.9-37.2-14.1c-7.1-6.1-13.8-12.8-19.8-20
	c-0.2-0.2-15.1-19.2-15-38c0-18,14.8-36.8,15-36.9c6.1-7.2,12.7-13.9,19.8-20C63,42.9,81.3,28,100,28 M100,25
	c-19.9,0-39,15.9-39,15.9c-7.3,6.2-14,13-20.2,20.4C40.7,61.2,25,80,25,100s15.7,39.8,15.7,39.8c6.2,7.3,13,14.1,20.2,20.4
	c0,0,19.1,14.8,39,14.8s39-14.8,39-14.8c7.3-6.2,14-13,20.2-20.4c0,0,15.7-19.8,15.7-39.8s-15.7-38.8-15.7-38.8
	c-6.2-7.3-13-14.1-20.2-20.4C139,40.9,119.9,25,100,25L100,25z"/>
</svg>
